<svg xmlns="http://www.w3.org/2000/svg" width="193.575" height="68.864" viewBox="0 0 193.575 68.864">
  <g id="Group_374" data-name="Group 374" transform="translate(-12034.537 -1327.993)">
    <g id="Group_372" data-name="Group 372">
      <g id="Group_371" data-name="Group 371">
        <path id="Path_312" data-name="Path 312" d="M12099.986,1383.9h4.765c2.463,0,4.177,1.464,4.177,3.873,0,2.071-1.428,3.909-4.248,3.909h-2.944v4.944h-1.749Zm4.354,6.3c1.749,0,2.856-.8,2.856-2.428,0-1.606-1.125-2.391-2.679-2.391h-2.783v4.819Z" fill="#fff"/>
        <path id="Path_313" data-name="Path 313" d="M12110.45,1387.612h1.569v1.695h.036a3.566,3.566,0,0,1,3.142-1.856,4,4,0,0,1,.679.054v1.5a4.29,4.29,0,0,0-.821-.054,2.749,2.749,0,0,0-2.98,2.856v4.819h-1.624Z" fill="#fff"/>
        <path id="Path_314" data-name="Path 314" d="M12116.69,1393.341v-2.231a3.889,3.889,0,0,1,7.764-.036v2.088a3.619,3.619,0,0,1-3.855,3.7C12118.4,1396.857,12116.69,1395.643,12116.69,1393.341Zm6.121-.072v-2.338a2.251,2.251,0,0,0-4.5.072v2.32a2.068,2.068,0,0,0,2.284,2.159A2.009,2.009,0,0,0,12122.812,1393.269Z" fill="#fff"/>
        <path id="Path_315" data-name="Path 315" d="M12125.795,1393.2v-1.928a3.633,3.633,0,0,1,3.873-3.837c2.035,0,3.7,1.16,3.7,3.266v.214h-1.571v-.267a1.9,1.9,0,0,0-2.106-1.857,2.105,2.105,0,0,0-2.213,2.3v2.142a2.064,2.064,0,0,0,2.249,2.248,1.853,1.853,0,0,0,2.07-1.856v-.2h1.571v.161c0,2.088-1.607,3.266-3.642,3.266C12127.491,1396.857,12125.795,1395.554,12125.795,1393.2Z" fill="#fff"/>
        <path id="Path_316" data-name="Path 316" d="M12134.585,1393.18v-1.856a3.716,3.716,0,0,1,3.962-3.891,3.4,3.4,0,0,1,3.676,3.534v1.535h-5.961v.785a2.17,2.17,0,0,0,2.41,2.2,2.725,2.725,0,0,0,2.177-1.16l1.232.732a3.845,3.845,0,0,1-3.5,1.8C12136.369,1396.857,12134.585,1395.661,12134.585,1393.18Zm6.032-1.8v-.429a2,2,0,0,0-2.124-2.16,2.151,2.151,0,0,0-2.231,2.285v.3Z" fill="#fff"/>
        <path id="Path_317" data-name="Path 317" d="M12143.208,1395.286l1.124-.874a3.4,3.4,0,0,0,2.642,1.124c1.018,0,2.053-.464,2.053-1.445,0-.893-.571-1.143-1.8-1.375l-1.089-.214c-1.535-.286-2.516-1-2.516-2.32,0-1.678,1.409-2.785,3.354-2.785a3.966,3.966,0,0,1,3.284,1.25l-1.142.821a2.918,2.918,0,0,0-2.2-.821c-1.018,0-1.714.5-1.714,1.3,0,.785.75,1,1.874,1.231l1.339.286c1.41.285,2.284,1.053,2.284,2.392,0,2-1.927,2.98-3.694,2.98A4.54,4.54,0,0,1,12143.208,1395.286Z" fill="#fff"/>
        <path id="Path_318" data-name="Path 318" d="M12151.753,1395.286l1.124-.874a3.4,3.4,0,0,0,2.642,1.124c1.018,0,2.053-.464,2.053-1.445,0-.893-.571-1.143-1.8-1.375l-1.089-.214c-1.535-.286-2.517-1-2.517-2.32,0-1.678,1.41-2.785,3.355-2.785a3.967,3.967,0,0,1,3.284,1.25l-1.142.821a2.92,2.92,0,0,0-2.2-.821c-1.017,0-1.713.5-1.713,1.3,0,.785.749,1,1.874,1.231l1.338.286c1.411.285,2.285,1.053,2.285,2.392,0,2-1.928,2.98-3.7,2.98A4.537,4.537,0,0,1,12151.753,1395.286Z" fill="#fff"/>
        <path id="Path_319" data-name="Path 319" d="M12164.5,1393.751l1.588-.606a3.359,3.359,0,0,0,3.373,2.159c1.553,0,2.856-.714,2.856-2.088,0-1.214-.821-1.731-1.893-2.053l-2.32-.624c-1.749-.482-2.892-1.357-2.892-3.32,0-2.195,1.839-3.552,4.2-3.552,2.017,0,3.766.786,4.39,2.517l-1.517.607a2.985,2.985,0,0,0-2.909-1.642c-1.214,0-2.445.589-2.445,1.927,0,.964.7,1.571,2.035,1.946l2.338.642a3.248,3.248,0,0,1,2.73,3.409c0,2.231-1.892,3.766-4.641,3.766C12167.068,1396.839,12165.1,1395.8,12164.5,1393.751Z" fill="#fff"/>
        <path id="Path_320" data-name="Path 320" d="M12175.429,1393.18v-1.856a3.717,3.717,0,0,1,3.962-3.891,3.4,3.4,0,0,1,3.678,3.534v1.535h-5.961v.785a2.169,2.169,0,0,0,2.408,2.2,2.73,2.73,0,0,0,2.179-1.16l1.23.732a3.843,3.843,0,0,1-3.5,1.8C12177.214,1396.857,12175.429,1395.661,12175.429,1393.18Zm6.033-1.8v-.429a2,2,0,0,0-2.124-2.16,2.151,2.151,0,0,0-2.23,2.285v.3Z" fill="#fff"/>
        <path id="Path_321" data-name="Path 321" d="M12184.627,1387.612h1.571v1.695h.036a3.564,3.564,0,0,1,3.141-1.856,3.968,3.968,0,0,1,.678.054v1.5a4.28,4.28,0,0,0-.82-.054,2.748,2.748,0,0,0-2.98,2.856v4.819h-1.625Z" fill="#fff"/>
        <path id="Path_322" data-name="Path 322" d="M12190.844,1387.612h1.714l2.339,6.978h.018l2.374-6.978h1.642l-3.249,9.048h-1.605Z" fill="#fff"/>
        <path id="Path_323" data-name="Path 323" d="M12200.112,1383.917h1.605v2.071h-1.605Zm0,3.7h1.605v9.013h-1.605Z" fill="#fff"/>
        <path id="Path_324" data-name="Path 324" d="M12203.2,1393.2v-1.928a3.633,3.633,0,0,1,3.873-3.837c2.035,0,3.7,1.16,3.7,3.266v.214h-1.571v-.267a1.9,1.9,0,0,0-2.106-1.857,2.105,2.105,0,0,0-2.213,2.3v2.142a2.064,2.064,0,0,0,2.249,2.248,1.853,1.853,0,0,0,2.07-1.856v-.2h1.571v.161c0,2.088-1.606,3.266-3.642,3.266C12204.9,1396.857,12203.2,1395.554,12203.2,1393.2Z" fill="#fff"/>
        <path id="Path_325" data-name="Path 325" d="M12211.993,1393.18v-1.856a3.716,3.716,0,0,1,3.962-3.891,3.4,3.4,0,0,1,3.676,3.534v1.535h-5.961v.785a2.17,2.17,0,0,0,2.41,2.2,2.725,2.725,0,0,0,2.177-1.16l1.232.732a3.846,3.846,0,0,1-3.5,1.8C12213.777,1396.857,12211.993,1395.661,12211.993,1393.18Zm6.032-1.8v-.429a2,2,0,0,0-2.124-2.16,2.151,2.151,0,0,0-2.231,2.285v.3Z" fill="#fff"/>
        <path id="Path_326" data-name="Path 326" d="M12220.616,1395.286l1.124-.874a3.4,3.4,0,0,0,2.642,1.124c1.018,0,2.052-.464,2.052-1.445,0-.893-.57-1.143-1.8-1.375l-1.089-.214c-1.535-.286-2.516-1-2.516-2.32,0-1.678,1.409-2.785,3.354-2.785a3.967,3.967,0,0,1,3.284,1.25l-1.142.821a2.921,2.921,0,0,0-2.2-.821c-1.019,0-1.714.5-1.714,1.3,0,.785.75,1,1.874,1.231l1.339.286c1.41.285,2.284,1.053,2.284,2.392,0,2-1.928,2.98-3.694,2.98A4.54,4.54,0,0,1,12220.616,1395.286Z" fill="#fff"/>
      </g>
      <path id="Path_327" data-name="Path 327" d="M12116.444,1367.76l-7.288-19.045h-.472l-2.351,23.512h-6.348v-2.586l4-30.331h7.289l7.759,20.221h.47l7.759-20.221h7.289l4,30.331v2.586h-6.348l-2.353-23.512h-.47l-7.289,19.045Z" fill="#fff"/>
      <path id="Path_328" data-name="Path 328" d="M12162.321,1348.245v23.982h-4l-.705-2.821h-.47a6.97,6.97,0,0,1-1.364,1.646,8.186,8.186,0,0,1-1.74,1.152,5.093,5.093,0,0,1-2.3.494h-4.232a7.4,7.4,0,0,1-2.751-.494,6.689,6.689,0,0,1-2.164-1.364,6.051,6.051,0,0,1-1.41-2.022,6.218,6.218,0,0,1-.493-2.469v-18.1h5.878v17.164a2.228,2.228,0,0,0,.682,1.716,2.687,2.687,0,0,0,1.9.635h3.526a3.374,3.374,0,0,0,1.693-.4,4.7,4.7,0,0,0,1.176-.917,6.161,6.161,0,0,0,.894-1.269v-16.929Z" fill="#fff"/>
      <path id="Path_329" data-name="Path 329" d="M12176.895,1363.041l-6.583-1.176a6.684,6.684,0,0,1-2.021-.728,6.447,6.447,0,0,1-1.74-1.388,6.762,6.762,0,0,1-1.2-1.928,5.974,5.974,0,0,1-.446-2.3v-.94a6.185,6.185,0,0,1,.494-2.469,6.034,6.034,0,0,1,1.409-2.022,6.689,6.689,0,0,1,2.164-1.364,7.4,7.4,0,0,1,2.75-.494h11.992v3.527l-1.411,1.411h-9.17a2.425,2.425,0,0,0-1.716.588,1.743,1.743,0,0,0-.635,1.293,2.739,2.739,0,0,0,.4,1.6,2.189,2.189,0,0,0,1.481.752l6.818,1.176a6.457,6.457,0,0,1,3.645,2,5.764,5.764,0,0,1,1.528,4.115v1.176a6.184,6.184,0,0,1-.494,2.468,6.03,6.03,0,0,1-1.41,2.022,6.682,6.682,0,0,1-2.163,1.364,7.412,7.412,0,0,1-2.751.494h-13.167v-4.938h11.991a1.87,1.87,0,0,0,2.116-2.116A1.949,1.949,0,0,0,12176.895,1363.041Z" fill="#fff"/>
      <path id="Path_330" data-name="Path 330" d="M12201.814,1348.245h5.878v2.351l-5.407,9.17,5.878,10.11v2.351h-5.878l-4.938-9.875h-4.467v9.875H12187V1339.31h5.878v18.1h4.467Z" fill="#fff"/>
    </g>
    <g id="Group_373" data-name="Group 373">
      <path id="Path_331" data-name="Path 331" d="M12091.462,1374.884l-4.338-4.338a1.363,1.363,0,0,0-1.929,0l-22.036,22.036-24.565-24.565,22.037-22.036a1.364,1.364,0,0,0,0-1.928l-4.339-4.339a1.364,1.364,0,0,0-1.928,0l-18.686,18.685a3.9,3.9,0,0,0-1.142,2.756v13.725a3.9,3.9,0,0,0,1.142,2.756l.078.078,17.706,17.706.077.078a3.9,3.9,0,0,0,2.756,1.141h13.727a3.9,3.9,0,0,0,2.755-1.141l18.685-18.685A1.363,1.363,0,0,0,12091.462,1374.884Z" fill="#fff"/>
      <path id="Path_332" data-name="Path 332" d="M12072.878,1352.067l-.02-.02-22.036,22.037a1.362,1.362,0,0,0,0,1.928l4.338,4.339a1.365,1.365,0,0,0,1.929,0l18.607-18.608.078-.077a3.9,3.9,0,0,0,1.141-2.756v-13.726a3.9,3.9,0,0,0-1.141-2.755l-14.037-14.037a1.366,1.366,0,0,0-1.93,0l-4.339,4.339a1.362,1.362,0,0,0,0,1.927Z" fill="#fff"/>
    </g>
  </g>
</svg>
